<?xml version="1.0" standalone="no"?>
<!DOCTYPE svg PUBLIC "-//W3C//DTD SVG 20010904//EN"
 "http://www.w3.org/TR/2001/REC-SVG-20010904/DTD/svg10.dtd">
<svg version="1.0" xmlns="http://www.w3.org/2000/svg"
 width="291.000000pt" height="316.000000pt" viewBox="0 0 291.000000 316.000000"
 preserveAspectRatio="xMidYMid meet">

<g transform="translate(0.000000,316.000000) scale(0.100000,-0.100000)"
fill="#000000" stroke="none">
<path d="M540 2980 l0 -170 -178 0 c-172 0 -180 -1 -231 -26 -64 -32 -105 -86
-120 -155 -8 -34 -11 -458 -11 -1334 l0 -1285 1450 0 1450 0 -2 1318 -3 1317
-22 42 c-27 51 -82 96 -132 112 -22 6 -110 11 -210 11 l-171 0 0 170 0 170
-120 0 -120 0 0 -170 0 -170 -670 0 -670 0 0 170 0 170 -120 0 -120 0 0 -170z
m2260 -1785 l0 -1085 -1350 0 -1350 0 0 1085 0 1085 1350 0 1350 0 0 -1085z"/>
<path d="M1320 1930 l0 -150 130 0 130 0 0 150 0 150 -130 0 -130 0 0 -150z"/>
<path d="M1800 1930 l0 -150 135 0 135 0 0 150 0 150 -135 0 -135 0 0 -150z"/>
<path d="M2280 1930 l0 -150 135 0 135 0 0 150 0 150 -135 0 -135 0 0 -150z"/>
<path d="M360 1450 l0 -150 130 0 130 0 0 150 0 150 -130 0 -130 0 0 -150z"/>
<path d="M840 1450 l0 -150 130 0 130 0 0 150 0 150 -130 0 -130 0 0 -150z"/>
<path d="M1320 1450 l0 -150 130 0 130 0 0 150 0 150 -130 0 -130 0 0 -150z"/>
<path d="M1800 1450 l0 -150 135 0 135 0 0 150 0 150 -135 0 -135 0 0 -150z"/>
<path d="M2280 1450 l0 -150 135 0 135 0 0 150 0 150 -135 0 -135 0 0 -150z"/>
<path d="M360 955 l0 -145 130 0 130 0 0 145 0 145 -130 0 -130 0 0 -145z"/>
<path d="M840 955 l0 -145 130 0 130 0 0 145 0 145 -130 0 -130 0 0 -145z"/>
<path d="M1320 955 l0 -145 130 0 130 0 0 145 0 145 -130 0 -130 0 0 -145z"/>
<path d="M1800 955 l0 -145 135 0 135 0 0 145 0 145 -135 0 -135 0 0 -145z"/>
<path d="M2280 955 l0 -145 135 0 135 0 0 145 0 145 -135 0 -135 0 0 -145z"/>
<path d="M360 460 l0 -150 130 0 130 0 0 150 0 150 -130 0 -130 0 0 -150z"/>
<path d="M840 460 l0 -150 130 0 130 0 0 150 0 150 -130 0 -130 0 0 -150z"/>
<path d="M1320 460 l0 -150 130 0 130 0 0 150 0 150 -130 0 -130 0 0 -150z"/>
<path d="M1800 460 l0 -150 135 0 135 0 0 150 0 150 -135 0 -135 0 0 -150z"/>
<path d="M2280 460 l0 -150 135 0 135 0 0 150 0 150 -135 0 -135 0 0 -150z"/>
</g>
</svg>
