<svg id="svg" xmlns="http://www.w3.org/2000/svg" xmlns:xlink="http://www.w3.org/1999/xlink" width="400" height="374.88789237668163" viewBox="0, 0, 400,374.88789237668163" version="1.1"><g id="svgg"><path id="path0" d="M126.474 0.657 C 126.510 1.018,126.521 10.221,126.497 21.109 L 126.454 40.905 64.353 40.809 C 23.216 40.745,2.198 40.840,2.093 41.088 C 2.007 41.295,1.922 41.252,1.906 40.994 C 1.890 40.736,1.454 40.525,0.938 40.525 L 0.000 40.525 0.000 63.555 L 0.000 86.585 1.173 86.820 C 1.818 86.949,8.909 87.054,16.932 87.054 L 31.520 87.054 31.563 88.462 C 31.587 89.235,31.572 90.187,31.531 90.577 C 31.489 90.967,31.681 91.428,31.956 91.603 C 32.331 91.841,32.339 91.922,31.989 91.927 C 31.719 91.930,31.520 92.411,31.520 93.058 C 31.520 93.677,31.689 94.184,31.895 94.184 C 32.389 94.184,32.381 95.947,31.885 96.254 C 31.661 96.392,31.522 97.891,31.553 99.828 L 31.606 103.165 32.595 103.049 C 33.561 102.937,34.084 105.628,33.257 106.455 C 32.698 107.014,33.020 111.948,33.662 112.658 C 34.129 113.173,34.184 113.441,33.863 113.640 C 33.238 114.026,32.809 118.024,33.356 118.362 C 33.591 118.507,33.680 118.793,33.554 118.997 C 33.120 119.699,33.760 121.234,34.438 121.121 C 34.939 121.037,35.058 121.241,34.966 122.025 C 34.902 122.581,35.034 123.383,35.261 123.807 C 35.537 124.323,35.545 124.578,35.285 124.578 C 35.072 124.578,34.897 125.084,34.897 125.704 C 34.897 126.351,35.096 126.832,35.366 126.835 C 35.656 126.839,35.692 126.946,35.460 127.116 C 35.242 127.276,35.106 129.202,35.135 131.707 C 35.195 136.749,35.263 137.693,35.519 137.058 C 35.660 136.710,35.858 136.743,36.302 137.187 C 36.813 137.697,36.890 138.961,36.846 146.095 C 36.795 154.471,36.950 155.648,38.048 155.226 C 38.775 154.947,38.806 155.471,38.669 165.710 L 38.573 172.883 39.549 173.128 C 40.606 173.393,40.668 173.734,40.651 179.174 C 40.647 180.413,40.828 181.550,41.053 181.702 C 41.341 181.895,41.343 181.979,41.059 181.983 C 40.803 181.987,40.627 183.363,40.579 185.741 L 40.502 189.493 41.466 189.493 L 42.430 189.493 42.218 192.876 C 42.087 194.963,42.158 196.544,42.404 197.004 C 42.676 197.511,42.679 197.749,42.415 197.749 C 42.201 197.749,42.026 197.927,42.026 198.146 C 42.026 198.365,42.172 198.454,42.349 198.344 C 42.527 198.234,42.549 198.819,42.398 199.643 C 42.247 200.467,42.271 201.233,42.450 201.344 C 42.630 201.454,42.777 201.338,42.777 201.085 C 42.777 200.832,42.885 200.734,43.018 200.866 C 43.150 200.999,43.038 201.374,42.768 201.699 C 41.187 203.605,42.363 208.166,44.144 207.033 C 44.456 206.834,44.489 207.129,44.266 208.117 C 43.814 210.125,43.819 219.416,44.272 219.697 C 44.482 219.826,44.633 220.386,44.609 220.941 L 44.564 221.951 44.287 220.826 C 44.074 219.958,44.005 220.238,43.987 222.045 C 43.971 223.595,44.112 224.392,44.402 224.396 C 44.654 224.399,44.601 224.556,44.278 224.765 C 43.839 225.049,43.943 225.130,44.747 225.135 C 45.955 225.142,45.871 224.319,45.794 235.335 C 45.742 242.968,45.978 244.000,47.558 243.024 C 47.714 242.928,47.811 246.547,47.773 251.068 C 47.709 258.727,47.750 259.287,48.373 259.287 C 49.067 259.287,49.683 264.573,49.520 269.137 C 49.293 275.477,49.494 277.395,50.362 277.169 C 51.145 276.964,51.101 276.477,51.246 287.054 C 51.366 295.809,51.340 295.320,51.689 295.265 C 52.984 295.061,53.109 295.323,53.092 298.218 C 53.083 299.817,53.249 301.369,53.461 301.667 C 53.749 302.072,53.726 302.135,53.366 301.919 C 52.983 301.689,52.907 302.611,52.990 306.444 C 53.093 311.113,53.121 311.261,53.940 311.377 C 54.903 311.514,54.925 311.761,54.810 321.542 C 54.763 325.624,54.867 327.026,55.235 327.259 C 55.610 327.497,55.614 327.570,55.253 327.574 C 54.995 327.577,54.784 328.002,54.784 328.518 C 54.784 329.268,54.972 329.456,55.722 329.456 C 56.491 329.456,56.664 329.642,56.680 330.488 C 56.691 331.055,56.693 335.040,56.685 339.342 C 56.671 346.837,56.702 347.173,57.416 347.360 C 58.080 347.533,58.428 348.780,58.206 350.188 C 58.181 350.342,58.325 350.469,58.525 350.469 C 58.725 350.469,58.823 350.680,58.744 350.938 C 58.388 352.092,58.173 354.634,58.445 354.466 C 58.795 354.249,58.757 355.471,58.368 356.907 C 58.214 357.473,58.279 358.244,58.518 358.689 C 58.831 359.274,58.828 359.475,58.509 359.475 C 57.780 359.475,58.351 364.414,59.147 364.997 C 59.509 365.262,59.900 365.478,60.015 365.478 C 60.131 365.478,60.192 367.430,60.152 369.817 C 60.112 372.204,60.172 374.399,60.286 374.695 C 60.540 375.357,62.530 375.413,62.791 374.765 C 62.942 374.390,62.986 374.390,63.010 374.765 C 63.033 375.140,91.190 375.235,202.465 375.235 L 341.890 375.235 341.771 371.687 C 341.695 369.445,341.782 368.271,342.008 368.497 C 343.202 369.698,343.313 368.919,343.232 359.866 L 343.152 350.876 344.090 350.766 L 345.028 350.657 345.028 340.893 L 345.028 331.130 345.966 331.137 L 346.904 331.144 347.010 326.507 C 347.086 323.160,346.982 321.704,346.635 321.275 C 346.301 320.863,346.292 320.764,346.605 320.952 C 346.946 321.157,347.050 320.319,347.030 317.554 C 346.986 311.520,346.987 311.512,347.936 311.377 L 348.780 311.257 348.780 301.818 C 348.780 296.626,348.907 292.457,349.062 292.553 C 349.217 292.649,349.343 292.562,349.343 292.361 C 349.343 292.160,349.132 291.910,348.874 291.806 C 348.536 291.669,348.530 291.608,348.852 291.587 C 349.555 291.540,349.829 292.286,349.330 292.887 C 348.957 293.336,349.018 293.433,349.673 293.433 C 350.111 293.433,350.487 293.307,350.510 293.152 C 350.796 291.171,350.761 287.593,350.451 287.220 C 350.175 286.887,350.182 286.669,350.476 286.487 C 350.710 286.342,350.870 285.375,350.838 284.296 C 350.620 276.965,350.833 273.975,351.591 273.735 C 352.312 273.506,352.334 273.193,352.247 264.586 L 352.158 255.674 352.965 255.829 C 354.084 256.043,354.185 255.485,354.170 249.156 C 354.137 235.659,354.110 236.023,355.143 236.023 L 356.066 236.023 356.027 230.383 C 356.006 227.281,355.836 224.648,355.650 224.533 C 355.457 224.414,355.486 224.112,355.719 223.832 C 355.977 223.521,356.047 222.360,355.910 220.676 C 355.696 218.044,355.704 218.011,356.606 218.011 C 357.715 218.011,357.832 217.722,357.943 214.688 C 358.012 212.793,357.928 212.365,357.533 212.603 C 357.144 212.837,357.129 212.785,357.466 212.361 C 357.751 212.004,357.906 209.601,357.923 205.283 C 357.949 198.917,358.164 197.733,359.179 198.360 C 359.345 198.463,359.445 194.575,359.401 189.720 C 359.325 181.387,359.417 180.368,360.256 180.253 C 360.446 180.227,360.776 180.185,360.990 180.159 C 361.245 180.129,361.369 177.620,361.350 172.889 C 361.297 159.592,361.223 160.600,362.255 160.600 L 363.159 160.600 363.205 155.347 C 363.236 151.845,363.118 150.094,362.851 150.094 C 362.571 150.094,362.567 149.875,362.839 149.368 C 363.052 148.969,363.227 147.280,363.227 145.616 C 363.227 142.849,363.291 142.589,363.970 142.589 C 365.086 142.589,365.177 141.668,365.032 131.817 L 364.900 122.839 365.752 123.001 C 366.221 123.091,366.625 122.976,366.651 122.745 C 366.873 120.767,366.766 118.288,366.440 117.845 C 366.149 117.451,366.159 117.375,366.473 117.563 C 366.790 117.753,366.912 116.496,366.931 112.851 C 366.945 110.117,366.961 107.168,366.968 106.297 C 366.976 105.110,367.109 104.764,367.496 104.912 C 368.317 105.227,368.445 103.944,368.449 95.355 C 368.451 90.942,368.512 87.273,368.583 87.201 C 368.655 87.129,375.506 87.060,383.807 87.046 C 392.107 87.033,399.147 86.926,399.449 86.810 C 399.925 86.628,400.000 83.477,400.000 63.656 L 400.000 40.713 336.773 40.814 L 273.546 40.915 273.503 21.114 C 273.479 10.224,273.490 1.018,273.526 0.657 C 273.590 0.033,269.864 -0.000,200.000 -0.000 C 130.136 -0.000,126.410 0.033,126.474 0.657 M252.240 30.769 L 252.345 40.901 200.094 40.901 L 147.842 40.901 147.842 30.769 L 147.842 20.638 199.988 20.638 L 252.134 20.638 252.240 30.769 M289.775 60.694 C 240.399 60.747,159.601 60.747,110.225 60.694 C 60.849 60.642,101.248 60.599,200.000 60.599 C 298.752 60.599,339.151 60.642,289.775 60.694 M379.423 64.071 L 379.550 66.229 374.953 66.114 L 370.356 65.998 370.356 64.894 L 370.356 63.790 199.062 63.790 C 104.850 63.790,27.787 63.917,27.812 64.071 C 28.109 65.951,27.942 66.041,24.203 66.041 L 20.638 66.041 20.638 63.977 L 20.638 61.914 199.967 61.914 L 379.295 61.914 379.423 64.071 M380.381 64.822 C 380.295 65.389,380.225 64.925,380.225 63.790 C 380.225 62.655,380.295 62.190,380.381 62.758 C 380.467 63.326,380.467 64.254,380.381 64.822 M271.764 88.086 C 232.294 88.139,167.706 88.139,128.236 88.086 C 88.766 88.034,121.060 87.991,200.000 87.991 C 278.940 87.991,311.234 88.034,271.764 88.086 M343.596 90.994 C 343.442 92.637,343.501 93.433,343.775 93.433 C 344.045 93.433,344.028 93.619,343.725 93.984 C 343.473 94.287,343.157 94.521,343.022 94.503 C 341.940 94.360,341.892 94.723,341.913 102.908 C 341.943 114.599,341.992 113.997,340.994 114.139 C 339.991 114.281,339.655 115.681,340.403 116.603 C 340.789 117.080,340.793 117.152,340.418 116.927 C 340.031 116.694,339.944 117.893,339.981 122.952 C 340.046 131.651,340.012 132.532,339.621 132.291 C 339.433 132.175,339.036 132.174,338.737 132.288 C 337.979 132.579,337.796 142.718,338.532 143.627 C 338.895 144.075,338.901 144.160,338.555 143.952 C 338.297 143.797,338.086 143.849,338.086 144.068 C 338.086 144.286,338.255 144.465,338.462 144.465 C 338.668 144.465,338.837 144.887,338.837 145.403 C 338.837 145.919,338.652 146.341,338.427 146.341 C 338.142 146.341,338.096 147.267,338.275 149.355 C 338.524 152.254,338.203 153.079,337.303 151.858 C 337.181 151.694,336.865 151.820,336.600 152.140 C 336.248 152.565,336.237 152.720,336.562 152.720 C 336.817 152.720,336.884 152.916,336.720 153.182 C 336.407 153.688,336.456 162.340,336.775 162.855 C 336.884 163.031,336.795 163.285,336.577 163.420 C 336.353 163.558,336.217 164.669,336.263 165.979 C 336.423 170.468,336.281 171.482,335.493 171.482 C 334.810 171.482,334.775 171.866,334.758 179.644 C 334.749 184.132,334.734 188.185,334.725 188.649 C 334.713 189.294,334.489 189.493,333.777 189.493 L 332.846 189.493 332.885 194.465 C 332.907 197.200,333.094 199.648,333.300 199.906 C 333.556 200.226,333.541 200.375,333.254 200.375 C 332.966 200.375,332.833 201.805,332.833 204.900 C 332.833 207.522,332.689 209.336,332.492 209.214 C 331.082 208.343,330.941 209.205,331.006 218.317 C 331.054 224.886,330.955 227.205,330.623 227.316 C 330.277 227.431,330.278 227.589,330.628 228.010 C 330.989 228.446,330.940 228.684,330.382 229.193 C 329.837 229.692,329.782 229.701,330.130 229.234 C 330.604 228.598,330.386 228.143,329.607 228.143 C 329.237 228.143,329.132 230.260,329.131 237.750 C 329.129 243.034,329.006 247.466,328.857 247.600 C 328.707 247.733,328.707 247.631,328.855 247.373 C 329.034 247.063,328.864 246.904,328.352 246.904 C 327.927 246.904,327.568 247.031,327.553 247.186 C 327.525 247.476,327.581 254.761,327.621 256.098 C 327.633 256.510,327.520 257.825,327.370 259.019 C 327.133 260.899,327.192 261.264,327.807 261.745 C 328.311 262.138,328.354 262.271,327.955 262.201 C 327.555 262.130,327.359 262.498,327.278 263.470 C 327.199 264.422,326.954 264.894,326.475 265.019 C 325.831 265.187,325.785 265.807,325.762 274.633 C 325.737 284.422,325.685 284.891,324.643 284.719 C 323.899 284.596,323.493 288.746,324.182 289.436 C 324.400 289.653,324.575 290.008,324.572 290.225 C 324.569 290.442,324.407 290.367,324.212 290.058 C 323.981 289.694,323.877 291.426,323.913 295.009 C 323.944 298.040,324.071 300.457,324.195 300.380 C 324.319 300.303,324.355 300.803,324.275 301.490 C 324.152 302.541,323.991 302.725,323.257 302.644 C 322.069 302.514,322.032 302.763,321.984 311.249 C 321.951 316.919,322.049 318.575,322.415 318.580 C 322.770 318.584,322.778 318.657,322.446 318.867 C 322.202 319.022,321.949 319.906,321.883 320.832 C 321.789 322.159,321.631 322.492,321.135 322.410 C 320.790 322.353,320.384 322.506,320.233 322.750 C 320.045 323.054,320.124 323.093,320.486 322.875 C 320.906 322.622,320.925 322.667,320.577 323.099 C 320.286 323.459,320.238 324.174,320.434 325.243 C 320.596 326.124,320.603 326.922,320.451 327.016 C 320.174 327.188,320.308 330.359,320.630 331.238 C 320.725 331.496,320.672 331.707,320.513 331.707 C 320.354 331.707,320.207 332.298,320.187 333.021 C 320.166 333.743,320.279 334.334,320.437 334.334 C 320.595 334.334,320.601 335.009,320.450 335.835 C 320.299 336.660,320.322 337.336,320.501 337.336 C 320.679 337.336,320.826 337.515,320.826 337.733 C 320.826 337.952,320.692 338.048,320.529 337.947 C 320.365 337.846,320.299 338.343,320.382 339.051 C 320.528 340.302,320.194 340.593,318.856 340.382 C 318.701 340.358,318.574 342.364,318.574 344.841 L 318.574 349.343 200.938 349.343 C 107.099 349.343,83.295 349.248,83.265 348.874 C 83.244 348.616,83.202 346.211,83.171 343.528 C 83.129 339.937,82.991 338.639,82.645 338.604 C 82.387 338.577,82.014 338.534,81.815 338.508 C 81.595 338.480,81.530 336.978,81.650 334.681 C 81.795 331.880,81.719 330.743,81.354 330.294 C 81.024 329.886,81.012 329.776,81.316 329.959 C 81.663 330.167,81.740 329.148,81.646 325.622 C 81.498 320.066,81.505 320.122,81.051 320.826 C 80.808 321.201,80.685 321.232,80.681 320.919 C 80.678 320.661,80.476 320.492,80.233 320.544 C 79.903 320.614,79.806 318.487,79.850 312.120 C 79.910 303.332,79.713 302.112,78.319 302.647 C 77.977 302.778,77.891 302.075,77.978 299.853 C 78.049 298.039,77.939 296.787,77.696 296.637 C 77.477 296.502,77.298 296.222,77.298 296.016 C 77.298 295.809,77.472 295.748,77.685 295.879 C 77.945 296.040,78.037 294.538,77.966 291.305 C 77.863 286.584,77.845 286.492,77.017 286.521 C 76.042 286.556,76.116 287.309,76.139 277.580 C 76.151 272.564,76.041 270.918,75.695 270.914 C 75.392 270.910,75.369 270.814,75.628 270.632 C 76.298 270.162,76.074 268.466,75.357 268.584 C 74.401 268.742,74.272 268.249,74.227 264.272 C 74.204 262.244,74.000 260.358,73.772 260.059 C 73.458 259.648,73.471 259.586,73.827 259.800 C 74.192 260.019,74.296 259.114,74.296 255.744 C 74.296 252.528,74.175 251.406,73.827 251.401 C 73.512 251.398,73.543 251.271,73.921 251.015 C 74.349 250.725,74.259 250.686,73.546 250.850 L 72.608 251.067 72.692 246.343 C 72.751 243.050,72.655 241.694,72.373 241.868 C 72.107 242.032,72.117 241.842,72.402 241.309 C 73.361 239.518,72.718 232.480,71.622 232.767 C 70.803 232.981,70.840 233.460,70.880 223.358 L 70.907 216.510 69.975 216.510 C 68.917 216.510,69.019 217.732,69.019 205.159 L 69.019 198.499 68.093 198.499 C 67.113 198.499,67.069 198.287,66.998 193.246 C 66.988 192.523,66.850 191.733,66.692 191.489 C 66.534 191.246,66.576 190.940,66.786 190.811 C 67.336 190.470,67.261 188.369,66.698 188.362 C 66.335 188.358,66.339 188.286,66.714 188.048 C 67.058 187.830,67.181 186.804,67.136 184.529 C 67.066 180.986,66.832 180.292,65.798 180.562 C 65.135 180.736,65.108 180.366,65.198 172.548 C 65.249 168.040,65.165 164.372,65.010 164.397 C 63.872 164.577,63.790 164.269,63.790 159.828 C 63.790 157.268,63.644 155.393,63.455 155.510 C 63.260 155.630,63.250 155.139,63.431 154.337 C 63.679 153.237,63.613 152.849,63.109 152.432 C 62.569 151.986,62.564 151.936,63.073 152.092 C 63.543 152.237,63.682 151.960,63.728 150.788 C 63.771 149.700,63.661 149.372,63.319 149.565 C 62.949 149.774,62.950 149.723,63.321 149.323 C 63.879 148.721,63.963 146.565,63.415 146.904 C 63.208 147.032,63.039 146.957,63.039 146.739 C 63.039 146.520,62.786 146.341,62.477 146.341 C 61.925 146.341,61.718 144.113,61.841 139.482 C 61.867 138.470,61.749 138.142,61.427 138.335 C 61.080 138.543,61.077 138.480,61.413 138.064 C 62.713 136.455,61.761 127.685,60.379 128.539 C 59.994 128.776,59.980 128.386,59.990 118.141 L 59.997 110.765 59.079 110.535 C 58.043 110.275,58.046 110.303,58.134 99.513 C 58.167 95.370,58.069 94.162,57.700 94.210 C 56.460 94.373,56.360 94.153,56.416 91.373 L 56.473 88.562 200.148 88.559 L 343.823 88.555 343.596 90.994 M103.274 106.018 C 103.231 106.541,103.399 106.944,103.663 106.948 C 104.028 106.952,104.027 107.017,103.658 107.252 C 103.283 107.489,103.207 129.969,103.283 218.409 L 103.377 329.268 115.672 329.268 L 127.966 329.268 127.966 217.261 L 127.966 105.253 115.658 105.174 L 103.351 105.094 103.274 106.018 M158.725 216.377 C 158.722 305.026,158.817 327.806,159.192 328.268 C 159.584 328.753,159.568 328.794,159.099 328.518 C 158.614 328.232,158.607 328.273,159.052 328.821 C 159.516 329.394,160.757 329.456,171.716 329.456 L 183.865 329.456 183.859 217.167 C 183.856 153.980,183.712 105.102,183.529 105.390 C 183.256 105.821,183.173 105.821,183.001 105.390 C 182.833 104.970,182.725 104.979,182.398 105.441 C 182.128 105.822,181.998 105.853,181.994 105.535 C 181.990 105.170,179.410 105.066,170.359 105.066 L 158.729 105.066 158.725 216.377 M214.817 105.433 C 214.929 105.615,214.847 105.872,214.634 106.004 C 214.421 106.135,214.335 106.386,214.443 106.561 C 214.633 106.868,214.682 325.308,214.493 327.205 C 214.264 329.494,213.810 329.416,227.628 329.446 C 236.605 329.465,240.390 329.349,240.759 329.042 C 241.199 328.677,241.278 311.549,241.275 216.858 L 241.271 105.105 227.941 105.103 C 220.323 105.102,214.700 105.243,214.817 105.433 M272.017 105.151 C 271.746 106.144,271.743 106.941,272.011 106.775 C 272.346 106.568,272.358 107.505,272.025 107.838 C 271.933 107.930,271.942 157.172,272.045 217.265 C 272.148 277.359,272.102 326.607,271.942 326.705 C 271.782 326.804,271.726 327.337,271.817 327.889 C 271.909 328.441,271.997 329.024,272.014 329.183 C 272.080 329.803,296.350 329.469,296.589 328.845 C 296.710 328.530,296.808 278.059,296.807 216.687 L 296.806 105.102 284.425 105.076 C 277.616 105.061,272.032 105.095,272.017 105.151 M34.146 107.880 C 34.146 108.396,34.001 108.818,33.823 108.818 C 33.645 108.818,33.581 108.396,33.679 107.880 C 33.778 107.364,33.923 106.942,34.002 106.942 C 34.082 106.942,34.146 107.364,34.146 107.880 M45.847 224.096 C 45.506 224.438,45.295 224.424,44.934 224.035 C 44.618 223.694,44.610 223.611,44.908 223.778 C 45.152 223.915,45.465 223.844,45.603 223.621 C 45.741 223.397,45.952 223.313,46.073 223.433 C 46.193 223.554,46.092 223.852,45.847 224.096 M72.420 245.966 C 72.420 246.482,72.251 246.904,72.045 246.904 C 71.839 246.904,71.670 246.482,71.670 245.966 C 71.670 245.450,71.839 245.028,72.045 245.028 C 72.251 245.028,72.420 245.450,72.420 245.966 M328.330 260.225 C 328.330 260.741,328.161 261.163,327.955 261.163 C 327.749 261.163,327.580 260.741,327.580 260.225 C 327.580 259.709,327.749 259.287,327.955 259.287 C 328.161 259.287,328.330 259.709,328.330 260.225 M350.469 280.300 C 350.469 280.919,350.329 281.426,350.159 281.426 C 349.988 281.426,349.923 280.919,350.014 280.300 C 350.105 279.681,350.244 279.174,350.324 279.174 C 350.404 279.174,350.469 279.681,350.469 280.300 " stroke="none" fill="#a45cec" fill-rule="evenodd"></path><path id="path1" d="M33.490 40.807 C 50.568 40.861,78.513 40.861,95.591 40.807 C 112.669 40.753,98.696 40.709,64.540 40.709 C 30.385 40.709,16.412 40.753,33.490 40.807 M174.044 40.807 C 188.559 40.861,212.198 40.861,226.577 40.807 C 240.956 40.752,229.081 40.708,200.188 40.708 C 171.295 40.708,159.530 40.752,174.044 40.807 M304.626 40.807 C 321.824 40.861,349.854 40.861,366.915 40.807 C 383.977 40.753,369.906 40.709,335.647 40.709 C 301.388 40.709,287.429 40.753,304.626 40.807 M110.225 60.694 C 159.601 60.747,240.399 60.747,289.775 60.694 C 339.151 60.642,298.752 60.599,200.000 60.599 C 101.248 60.599,60.849 60.642,110.225 60.694 M380.225 63.790 C 380.225 64.925,380.295 65.389,380.381 64.822 C 380.467 64.254,380.467 63.326,380.381 62.758 C 380.295 62.190,380.225 62.655,380.225 63.790 M22.433 65.943 C 23.523 66.019,25.212 66.018,26.185 65.941 C 27.159 65.864,26.266 65.802,24.203 65.803 C 22.139 65.804,21.342 65.867,22.433 65.943 M371.670 65.913 C 375.236 66.187,379.654 66.206,379.493 65.947 C 379.397 65.793,377.259 65.696,374.743 65.732 C 372.227 65.768,370.844 65.849,371.670 65.913 M128.236 88.086 C 167.706 88.139,232.294 88.139,271.764 88.086 C 311.234 88.034,278.940 87.991,200.000 87.991 C 121.060 87.991,88.766 88.034,128.236 88.086 M199.697 88.837 L 343.296 88.932 343.440 90.526 L 343.584 92.120 343.649 90.338 L 343.715 88.555 199.906 88.649 L 56.098 88.742 199.697 88.837 M31.520 95.332 C 31.520 96.001,31.676 96.383,31.895 96.248 C 32.101 96.120,32.270 95.604,32.270 95.100 C 32.270 94.596,32.101 94.184,31.895 94.184 C 31.689 94.184,31.520 94.700,31.520 95.332 M33.271 103.064 C 33.133 103.202,33.021 104.074,33.021 105.003 C 33.021 107.185,33.479 106.754,33.538 104.516 C 33.563 103.580,33.569 102.814,33.552 102.814 C 33.535 102.814,33.408 102.927,33.271 103.064 M341.933 107.505 C 341.937 108.330,342.014 108.624,342.104 108.157 C 342.194 107.690,342.190 107.015,342.096 106.656 C 342.003 106.297,341.929 106.679,341.933 107.505 M214.259 216.698 C 214.259 277.339,214.343 326.870,214.445 326.768 C 214.691 326.522,214.695 106.878,214.449 106.632 C 214.344 106.527,214.259 156.057,214.259 216.698 M33.679 107.880 C 33.581 108.396,33.645 108.818,33.823 108.818 C 34.001 108.818,34.146 108.396,34.146 107.880 C 34.146 107.364,34.082 106.942,34.002 106.942 C 33.923 106.942,33.778 107.364,33.679 107.880 M128.140 217.261 C 128.140 277.214,128.183 301.740,128.236 271.764 C 128.289 241.787,128.289 192.735,128.236 162.758 C 128.183 132.781,128.140 157.308,128.140 217.261 M271.670 217.636 C 271.670 277.761,271.755 326.869,271.860 326.764 C 272.106 326.518,272.102 108.750,271.856 108.504 C 271.754 108.402,271.670 157.511,271.670 217.636 M33.072 113.897 C 33.100 114.943,33.199 115.348,33.297 114.822 C 33.393 114.306,33.666 113.763,33.903 113.616 C 34.207 113.427,34.141 113.155,33.677 112.691 C 33.052 112.066,33.023 112.123,33.072 113.897 M364.815 123.827 C 364.815 124.550,364.892 124.845,364.987 124.484 C 365.081 124.123,365.081 123.532,364.987 123.171 C 364.892 122.810,364.815 123.105,364.815 123.827 M34.984 129.456 C 34.984 130.178,35.061 130.474,35.155 130.113 C 35.250 129.751,35.250 129.160,35.155 128.799 C 35.061 128.438,34.984 128.734,34.984 129.456 M338.086 145.403 C 338.086 145.919,338.255 146.341,338.462 146.341 C 338.668 146.341,338.837 145.919,338.837 145.403 C 338.837 144.887,338.668 144.465,338.462 144.465 C 338.255 144.465,338.086 144.887,338.086 145.403 M338.086 150.657 C 338.086 151.173,337.917 151.595,337.711 151.595 C 337.505 151.595,337.336 151.735,337.336 151.907 C 337.336 152.079,337.589 152.220,337.899 152.220 C 338.286 152.220,338.462 151.831,338.462 150.969 C 338.462 150.281,338.377 149.719,338.274 149.719 C 338.171 149.719,338.086 150.141,338.086 150.657 M63.370 154.515 C 63.246 155.260,63.301 155.610,63.510 155.402 C 63.699 155.213,63.791 154.659,63.714 154.171 C 63.596 153.420,63.543 153.473,63.370 154.515 M336.312 156.098 C 336.312 157.026,336.386 157.406,336.475 156.942 C 336.564 156.477,336.564 155.718,336.475 155.253 C 336.386 154.789,336.312 155.169,336.312 156.098 M38.744 159.662 C 38.748 160.488,38.825 160.781,38.915 160.315 C 39.004 159.848,39.001 159.172,38.907 158.814 C 38.813 158.455,38.740 158.837,38.744 159.662 M336.247 161.081 C 336.292 162.471,336.417 163.520,336.525 163.412 C 336.761 163.176,336.599 158.988,336.344 158.733 C 336.245 158.634,336.202 159.691,336.247 161.081 M359.186 184.991 C 359.186 185.713,359.264 186.008,359.358 185.647 C 359.452 185.286,359.452 184.695,359.358 184.334 C 359.264 183.973,359.186 184.268,359.186 184.991 M42.121 190.807 C 42.125 191.632,42.202 191.926,42.292 191.459 C 42.381 190.992,42.378 190.317,42.284 189.958 C 42.190 189.599,42.117 189.981,42.121 190.807 M42.172 198.659 C 42.059 198.954,42.030 199.587,42.107 200.067 C 42.210 200.708,42.297 200.566,42.436 199.531 C 42.633 198.074,42.529 197.731,42.172 198.659 M42.777 201.085 C 42.777 201.338,42.608 201.441,42.402 201.313 C 42.177 201.175,42.044 201.582,42.070 202.323 C 42.098 203.125,42.179 203.299,42.298 202.814 C 42.399 202.402,42.657 201.849,42.871 201.586 C 43.084 201.323,43.150 200.999,43.018 200.866 C 42.885 200.734,42.777 200.832,42.777 201.085 M44.047 207.295 C 43.932 207.593,43.905 208.141,43.986 208.515 C 44.078 208.938,44.206 208.735,44.328 207.974 C 44.532 206.696,44.399 206.376,44.047 207.295 M44.233 220.720 C 44.406 221.762,44.459 221.815,44.577 221.064 C 44.654 220.576,44.562 220.021,44.373 219.832 C 44.165 219.624,44.109 219.974,44.233 220.720 M45.603 223.621 C 45.465 223.844,45.152 223.915,44.908 223.778 C 44.610 223.611,44.618 223.694,44.934 224.035 C 45.295 224.424,45.506 224.438,45.847 224.096 C 46.092 223.852,46.193 223.554,46.073 223.433 C 45.952 223.313,45.741 223.397,45.603 223.621 M329.571 227.556 C 329.213 227.963,329.282 228.108,329.914 228.273 C 330.609 228.455,330.643 228.562,330.195 229.155 C 329.712 229.795,329.721 229.797,330.382 229.193 C 330.940 228.684,330.989 228.446,330.628 228.010 C 330.272 227.582,330.279 227.423,330.660 227.271 C 331.007 227.131,330.985 227.072,330.582 227.061 C 330.272 227.052,329.817 227.275,329.571 227.556 M71.670 245.966 C 71.670 246.482,71.839 246.904,72.045 246.904 C 72.251 246.904,72.420 246.482,72.420 245.966 C 72.420 245.450,72.251 245.028,72.045 245.028 C 71.839 245.028,71.670 245.450,71.670 245.966 M327.317 249.906 C 327.317 251.041,327.387 251.506,327.473 250.938 C 327.559 250.371,327.559 249.442,327.473 248.874 C 327.387 248.307,327.317 248.771,327.317 249.906 M327.280 255.910 C 327.272 257.649,327.353 258.070,327.563 257.379 C 327.725 256.845,327.730 255.748,327.574 254.940 C 327.323 253.639,327.290 253.750,327.280 255.910 M327.580 260.225 C 327.580 260.741,327.749 261.163,327.955 261.163 C 328.161 261.163,328.330 260.741,328.330 260.225 C 328.330 259.709,328.161 259.287,327.955 259.287 C 327.749 259.287,327.580 259.709,327.580 260.225 M49.156 267.917 C 49.156 269.844,49.269 271.307,49.407 271.168 C 49.693 270.883,49.637 264.896,49.346 264.605 C 49.241 264.501,49.156 265.991,49.156 267.917 M350.014 280.300 C 349.923 280.919,349.988 281.426,350.159 281.426 C 350.329 281.426,350.469 280.919,350.469 280.300 C 350.469 279.681,350.404 279.174,350.324 279.174 C 350.244 279.174,350.105 279.681,350.014 280.300 M51.151 282.927 C 51.148 284.062,51.227 284.737,51.326 284.428 C 51.426 284.118,51.696 283.621,51.927 283.324 C 52.241 282.918,52.234 282.849,51.900 283.050 C 51.603 283.228,51.406 282.911,51.306 282.090 C 51.224 281.415,51.154 281.792,51.151 282.927 M51.119 287.054 C 51.119 287.777,51.196 288.072,51.291 287.711 C 51.385 287.350,51.385 286.759,51.291 286.398 C 51.196 286.037,51.119 286.332,51.119 287.054 M51.127 291.370 C 51.131 292.195,51.208 292.489,51.297 292.022 C 51.387 291.555,51.384 290.880,51.290 290.521 C 51.196 290.162,51.122 290.544,51.127 291.370 M348.874 291.806 C 349.132 291.910,349.343 292.160,349.343 292.361 C 349.343 292.562,349.203 292.640,349.031 292.534 C 348.859 292.428,348.718 292.595,348.718 292.905 C 348.718 293.398,348.787 293.401,349.263 292.924 C 349.843 292.344,349.595 291.538,348.852 291.587 C 348.530 291.608,348.536 291.669,348.874 291.806 M323.974 300.723 C 323.861 301.018,323.831 301.651,323.908 302.130 C 324.011 302.771,324.098 302.630,324.237 301.595 C 324.434 300.138,324.330 299.795,323.974 300.723 M79.550 319.490 C 79.550 319.994,79.688 320.491,79.857 320.596 C 80.026 320.700,80.091 320.288,80.002 319.680 C 79.805 318.339,79.550 318.232,79.550 319.490 M320.075 325.726 C 320.075 326.563,320.211 327.165,320.378 327.062 C 320.668 326.882,320.522 324.203,320.222 324.203 C 320.141 324.203,320.075 324.888,320.075 325.726 M320.075 330.394 C 320.075 331.116,320.210 331.707,320.375 331.707 C 320.540 331.707,320.606 331.116,320.521 330.394 C 320.437 329.672,320.302 329.081,320.222 329.081 C 320.141 329.081,320.075 329.672,320.075 330.394 M320.075 335.647 C 320.075 336.370,320.141 336.961,320.222 336.961 C 320.302 336.961,320.437 336.370,320.521 335.647 C 320.606 334.925,320.540 334.334,320.375 334.334 C 320.210 334.334,320.075 334.925,320.075 335.647 M320.128 338.919 C 320.077 339.790,320.104 340.424,320.189 340.327 C 320.497 339.975,320.771 337.336,320.500 337.336 C 320.347 337.336,320.180 338.048,320.128 338.919 M58.161 351.970 C 58.161 352.795,58.228 353.471,58.310 353.471 C 58.391 353.471,58.522 352.795,58.601 351.970 C 58.680 351.144,58.613 350.469,58.453 350.469 C 58.292 350.469,58.161 351.144,58.161 351.970 M58.412 354.472 C 58.274 354.609,58.161 355.228,58.161 355.847 C 58.161 357.281,58.582 356.903,58.687 355.374 C 58.775 354.113,58.774 354.109,58.412 354.472 " stroke="none" fill="#a85cec" fill-rule="evenodd"></path></g></svg>