<?xml version="1.0" standalone="no"?>
<!DOCTYPE svg PUBLIC "-//W3C//DTD SVG 20010904//EN"
 "http://www.w3.org/TR/2001/REC-SVG-20010904/DTD/svg10.dtd">
<svg version="1.0" xmlns="http://www.w3.org/2000/svg"
 width="223.000000pt" height="209.000000pt" viewBox="0 0 223.000000 209.000000"
 preserveAspectRatio="xMidYMid meet">

<g transform="translate(0.000000,209.000000) scale(0.100000,-0.100000)"
fill="#000000" stroke="none">
<path d="M720 1965 l0 -115 -355 0 -355 0 0 -115 0 -115 85 0 c80 0 85 -1 89
-22 3 -13 39 -358 81 -768 41 -410 78 -762 81 -783 l6 -37 771 2 771 3 77 800
c43 440 78 801 78 803 1 1 39 2 86 2 l85 0 0 115 0 115 -355 0 -355 0 0 115 0
115 -395 0 -395 0 0 -115z m690 -45 l0 -70 -295 0 -295 0 0 70 0 70 295 0 295
0 0 -70z m720 -182 l0 -23 -1015 0 -1015 0 0 23 0 22 1015 0 1015 0 0 -22z
m-205 -170 c-6 -48 -135 -1403 -135 -1424 0 -12 -114 -14 -670 -14 l-670 0 0
21 c0 24 -137 1364 -145 1422 l-5 37 815 0 816 0 -6 -42z"/>
<path d="M590 880 l0 -610 60 0 60 0 0 610 0 610 -60 0 -60 0 0 -610z"/>
<path d="M900 880 l0 -610 60 0 60 0 0 610 0 610 -60 0 -60 0 0 -610z"/>
<path d="M1210 880 l0 -610 60 0 60 0 0 610 0 610 -60 0 -60 0 0 -610z"/>
<path d="M1520 880 l0 -610 60 0 60 0 0 610 0 610 -60 0 -60 0 0 -610z"/>
</g>
</svg>
