<?xml version="1.0" standalone="no"?>
<!DOCTYPE svg PUBLIC "-//W3C//DTD SVG 20010904//EN"
 "http://www.w3.org/TR/2001/REC-SVG-20010904/DTD/svg10.dtd">
<svg version="1.0" xmlns="http://www.w3.org/2000/svg"
 width="337.000000pt" height="249.000000pt" viewBox="0 0 337.000000 249.000000"
 preserveAspectRatio="xMidYMid meet">

<g transform="translate(0.000000,249.000000) scale(0.100000,-0.100000)"
fill="#000000" stroke="none">
<path d="M444 2407 c-54 -35 -170 -109 -257 -165 l-158 -101 1 -1047 c0 -576
2 -1049 3 -1051 2 -1 678 -3 1501 -3 l1498 0 144 204 144 204 2 1011 3 1011
-1391 0 -1391 0 -99 -63z m2576 -1317 l0 -1030 -1485 0 -1485 0 0 1030 0 1030
1485 0 1485 0 0 -1030z"/>
<path d="M467 1833 c-4 -3 -7 -339 -7 -745 l0 -738 135 0 135 0 1 393 0 392
81 -247 82 -248 96 0 95 0 87 253 87 252 0 -397 1 -398 120 0 120 0 0 621 0
621 363 -5 c379 -6 395 -8 455 -54 114 -87 87 -218 -58 -282 -41 -18 -76 -21
-338 -27 l-292 -7 0 -99 0 -100 293 4 c271 4 296 6 355 26 35 13 82 34 104 48
136 86 221 257 198 400 -23 140 -123 253 -277 312 l-68 27 -486 3 c-391 3
-488 1 -496 -10 -5 -7 -65 -149 -133 -316 -68 -167 -126 -299 -131 -295 -4 4
-62 137 -128 295 -66 158 -125 297 -131 308 -10 18 -21 20 -134 20 -67 0 -126
-3 -129 -7z"/>
</g>
</svg>
