<?xml version="1.0" standalone="no"?>
<!DOCTYPE svg PUBLIC "-//W3C//DTD SVG 20010904//EN"
 "http://www.w3.org/TR/2001/REC-SVG-20010904/DTD/svg10.dtd">
<svg version="1.0" xmlns="http://www.w3.org/2000/svg"
 width="222.000000pt" height="233.000000pt" viewBox="0 0 222.000000 233.000000"
 preserveAspectRatio="xMidYMid meet">

<g transform="translate(0.000000,233.000000) scale(0.100000,-0.100000)"
fill="#000000" stroke="none">
<path d="M634 2305 c-342 -74 -603 -383 -621 -736 -12 -230 60 -426 215 -591
108 -114 244 -194 397 -234 110 -28 285 -24 398 10 49 15 107 36 130 47 35 18
42 19 51 7 6 -8 162 -191 345 -406 l335 -391 55 50 c31 27 105 95 164 151
l109 103 -386 350 c-212 193 -386 354 -386 358 0 5 14 29 31 53 42 61 93 175
115 254 25 91 25 290 0 385 -41 158 -147 326 -269 426 -78 63 -240 143 -334
163 -87 19 -263 20 -349 1z m341 -100 c194 -43 372 -186 460 -370 101 -208
100 -419 -1 -625 -39 -80 -61 -109 -133 -180 -95 -94 -175 -142 -301 -181 -96
-30 -270 -32 -370 -5 -181 49 -354 185 -439 346 -60 113 -76 182 -76 330 0
122 3 144 29 224 114 346 467 542 831 461z m748 -1575 l346 -314 -22 -24 c-12
-13 -52 -51 -89 -83 l-66 -60 -293 343 c-161 189 -299 351 -308 361 -14 17
-12 21 29 57 25 22 48 38 51 37 3 -1 162 -144 352 -317z"/>
<path d="M733 2090 c-446 -80 -631 -611 -329 -947 135 -150 364 -219 560 -168
196 51 360 215 411 411 63 241 -51 509 -270 635 -104 60 -259 89 -372 69z
m196 -105 c92 -22 173 -69 237 -137 88 -95 126 -190 126 -316 1 -272 -197
-472 -467 -472 -240 0 -427 160 -466 398 -45 273 178 535 461 541 25 0 74 -6
109 -14z"/>
</g>
</svg>
